<?xml version="1.0" encoding="UTF-8"?>
<svg width="24px" height="24px" viewBox="0 0 24 24" version="1.1" xmlns="http://www.w3.org/2000/svg" xmlns:xlink="http://www.w3.org/1999/xlink">
    <title>id_card</title>
    <g id="id_card" stroke="none" stroke-width="1" fill="none" fill-rule="evenodd">
        <g id="Vector" transform="translate(3, 5)" fill="#D91438" fill-rule="nonzero">
            <path d="M16,-0.75 C17.5187829,-0.75 18.75,0.481216998 18.75,2 L18.75,12 C18.75,13.5187832 17.518783,14.75 16,14.75 L2,14.75 C0.481216866,14.75 -0.75,13.5187833 -0.75,12 L-0.75,2 C-0.75,0.481216929 0.481216946,-0.75 2,-0.75 L16,-0.75 Z M16,0.75 L2,0.75 C1.30964407,0.75 0.75,1.30964406 0.75,2 L0.75,12 C0.75,12.6903561 1.30964395,13.25 2,13.25 L16,13.25 C16.6903559,13.25 17.25,12.690356 17.25,12 L17.25,2 C17.25,1.30964416 16.6903558,0.75 16,0.75 Z" id="Vector-37"></path>
            <path d="M15.0000003,4.25 C15.4142139,4.25 15.7500003,4.58578644 15.7500003,5 C15.7500003,5.41421356 15.4142139,5.75 15.0000003,5.75 L12.0000003,5.75 C11.5857868,5.75 11.2500003,5.41421356 11.2500003,5 C11.2500003,4.58578644 11.5857868,4.25 12.0000003,4.25 L15.0000003,4.25 Z" id="Vector_671"></path>
            <path d="M15.0000003,7.25 C15.4142139,7.25 15.7500003,7.58578644 15.7500003,8 C15.7500003,8.41421356 15.4142139,8.75 15.0000003,8.75 L12.0000003,8.75 C11.5857868,8.75 11.2500003,8.41421356 11.2500003,8 C11.2500003,7.58578644 11.5857868,7.25 12.0000003,7.25 L15.0000003,7.25 Z" id="Vector_675"></path>
            <path d="M6.00000034,2.25 C6.72934566,2.25 7.42881896,2.53973133 7.94454397,3.05545634 C8.46026905,3.57118131 8.75000034,4.27065463 8.75000034,5 C8.75000034,6.518783 7.51878334,7.75 6.00000034,7.75 C4.48121731,7.75 3.25000034,6.51878301 3.25000034,5 C3.25000034,3.48121696 4.4812173,2.25 6.00000034,2.25 Z M6.00000034,3.75 C5.30964442,3.75 4.75000034,4.30964408 4.75000034,5 C4.75000034,5.69035589 5.30964444,6.25 6.00000034,6.25 C6.69035622,6.25 7.25000034,5.69035588 7.25000034,5 C7.25000034,4.66847936 7.11830431,4.35053697 6.88388385,4.11611657 C6.64946336,3.88169607 6.33152092,3.75 6.00000034,3.75 Z" id="Vector-40"></path>
            <path d="M6.50011727,5.44051774 C6.80713954,5.16247062 7.28143199,5.1859596 7.55947912,5.49298187 C7.83752625,5.80000413 7.81403726,6.27429658 7.50701499,6.55234371 C5.28537378,8.56431819 5.04948773,11.2602616 7.50129485,13.4353905 C7.81114881,13.7102785 7.83949433,14.1843055 7.56460635,14.4941594 C7.28971837,14.8040134 6.81569138,14.8323589 6.50583742,14.5574709 C3.33319783,11.7428531 3.65954662,8.01301038 6.50011727,5.44051774 Z" id="Vector_676" transform="translate(6, 9.9964) rotate(90) translate(-6, -9.9964)"></path>
        </g>
    </g>
</svg>