<?xml version="1.0" encoding="UTF-8"?>
<svg width="24px" height="24px" viewBox="0 0 24 24" version="1.1" xmlns="http://www.w3.org/2000/svg" xmlns:xlink="http://www.w3.org/1999/xlink">
    <title>list_check</title>
    <g id="list_check" stroke="none" stroke-width="1" fill="none" fill-rule="evenodd">
        <path d="M7.91620113,4.25 L17.099069,4.25016787 C18.0295951,4.26985935 18.7681445,5.03985391 18.7492007,5.95500004 L18.7491289,18.6716222 C18.7538089,19.0098382 18.5819674,19.3260671 18.2956385,19.5061484 C18.0093129,19.6862266 17.6498577,19.7041484 17.3408075,19.5503053 L15.854,18.793 L14.69387,19.5822373 C14.4022056,19.7805256 14.0291815,19.8025576 13.7196216,19.6484588 L13.6067944,19.5824158 L12.499,18.83 L11.3938688,19.5822382 C11.1022047,19.7805254 10.7291825,19.8025573 10.4205771,19.6491058 L10.3081543,19.5833372 L9.141,18.794 L7.65236173,19.5534435 C7.38739626,19.6853101 7.07906884,19.6880721 6.81430819,19.5660625 L6.70376013,19.5061463 C6.41743475,19.3260662 6.24559361,19.0098386 6.25020115,18.6819992 L6.25035911,5.97039227 C6.23125767,5.03985364 6.96980715,4.26985934 7.91620113,4.25 Z M7.93206881,5.74983213 C7.8294129,5.75200449 7.74793591,5.83695049 7.75020115,5.95500004 L7.75,17.82 L8.74480771,17.3136938 L8.75582871,17.3081938 C9.07377845,17.1527723 9.45126336,17.183659 9.72524792,17.3786622 L10.849,18.138 L11.9565444,17.3867528 C12.2482042,17.1884763 12.621216,17.1664456 12.9307785,17.3205413 L13.0436074,17.3865829 L14.15,18.138 L15.2712943,17.376605 C15.5266422,17.20226 15.8474576,17.1620815 16.1341202,17.2621855 L16.2545941,17.3136937 L17.249,17.82 L17.2493987,5.93960757 C17.2510445,5.85748185 17.1992365,5.78669131 17.1340105,5.76063382 L17.0832013,5.75 L7.93206881,5.74983213 Z" id="Vector-10" fill="#D91438" fill-rule="nonzero"></path>
        <path d="M14.913199,13.25 C15.3274126,13.25 15.663199,13.5857864 15.663199,14 C15.663199,14.4142136 15.3274126,14.75 14.913199,14.75 L9.999199,14.75 C9.58498544,14.75 9.249199,14.4142136 9.249199,14 C9.249199,13.5857864 9.58498544,13.25 9.999199,13.25 L14.913199,13.25 Z M13.9688689,7.96966991 C14.2617621,7.6767767 14.7366359,7.6767767 15.0295291,7.96966991 C15.3224223,8.26256313 15.3224223,8.73743687 15.0295291,9.03033009 L12.0295291,12.0303301 C11.7366359,12.3232233 11.2617621,12.3232233 10.9688689,12.0303301 L9.96886891,11.0303301 C9.6759757,10.7374369 9.6759757,10.2625631 9.96886891,9.96966991 C10.2617621,9.6767767 10.7366359,9.6767767 11.0295291,9.96966991 L11.499199,10.439 L13.9688689,7.96966991 Z" id="Vector-11" fill="#D91438" fill-rule="nonzero"></path>
    </g>
</svg>