<?xml version="1.0" encoding="UTF-8"?>
<svg width="24px" height="24px" viewBox="0 0 24 24" version="1.1" xmlns="http://www.w3.org/2000/svg" xmlns:xlink="http://www.w3.org/1999/xlink">
    <title>rocket</title>
    <g id="rocket" stroke="none" stroke-width="1" fill="none" fill-rule="evenodd">
        <path d="M10.4509883,7.338745 C11.0643635,7.338745 11.4183751,8.03496841 11.057014,8.5305966 C10.8418826,8.82566207 10.6319835,9.12798489 10.431125,9.43260422 C9.83337714,10.3296833 9.23057045,11.3171811 8.79916711,12.0865558 C8.55319209,12.5252333 7.95365567,12.6022604 7.60477892,12.2400082 L6.66135012,11.26037 C5.80339438,10.3541391 5.80339438,8.93535116 6.66313247,8.02724375 C7.08057766,7.58934616 7.65859271,7.34069062 8.26598832,7.338745 L10.4509883,7.338745 Z M8.26839549,8.83874114 C8.07199895,8.83937149 7.88435878,8.92009216 7.75062655,9.06037003 C7.44030224,9.3881557 7.44030224,9.90133431 7.74619771,10.2244817 L7.9948833,10.482745 L8.06044737,10.374856 C8.337686,9.91389641 8.64144096,9.42766326 8.94942414,8.95510638 L9.0258833,8.837745 L8.26839549,8.83874114 Z" id="Vector-50" fill="#D91438" fill-rule="nonzero"></path>
        <path d="M15.4691777,12.9426803 C15.9648059,12.5813192 16.6610293,12.9353308 16.6610293,13.548706 L16.6610293,15.7361132 C16.6590836,16.3411017 16.4104281,16.9191167 15.9706543,17.3383442 C15.0644232,18.1963 13.6456355,18.1963 12.7347661,17.3339154 L11.7597661,16.3949153 C11.3975139,16.0460386 11.474541,15.4465023 11.9132185,15.2005272 C12.682593,14.7691239 13.6700909,14.1663171 14.5641459,13.5705738 C14.8717884,13.3677115 15.1741111,13.1578125 15.4691777,12.9426803 Z M15.1610293,14.972706 L15.0446678,15.0502701 C14.5721109,15.3582533 14.0858778,15.6620083 13.6249182,15.9392469 L13.5160293,16.003706 L13.7706543,16.2490678 C14.0686414,16.5311809 14.5198455,16.5568275 14.8442806,16.3273468 L14.937528,16.2508502 C15.0796821,16.1153355 15.1604028,15.9276953 15.1610293,15.733706 L15.1610293,14.972706 Z" id="Vector-51" fill="#D91438" fill-rule="nonzero"></path>
        <path d="M10.2697842,16.1502546 C10.5627406,15.8574245 11.0376143,15.8575269 11.3304444,16.1504832 C11.6232745,16.4434396 11.6231721,16.9183133 11.3302158,17.2111434 L9.01021575,19.5301434 C8.7172594,19.8229735 8.24238568,19.8228711 7.94955561,19.5299148 C7.65672553,19.2369584 7.6568279,18.7620847 7.94978425,18.4692546 L10.2697842,16.1502546 Z M8.52744108,14.4105979 C8.82020786,14.1175782 9.29508155,14.1173733 9.58810115,14.4101401 C9.88112075,14.7029069 9.8813257,15.1777805 9.58855892,15.4708001 L8.43055892,16.6298001 C8.13779214,16.9228198 7.66291845,16.9230247 7.36989885,16.6302579 C7.07687925,16.3374911 7.0766743,15.8626175 7.36944108,15.5695979 L8.52744108,14.4105979 Z M7.61402965,11.1860097 C7.90656883,10.8927628 8.38144222,10.8921892 8.67468904,11.1847283 L10.7479704,13.2530097 L12.8149704,15.3250097 C13.1075095,15.6182565 13.1069359,16.0931299 12.813689,16.3856691 C12.5204422,16.6782082 12.0455688,16.6776346 11.7530296,16.3843877 L9.68731104,14.3136691 L7.61531096,12.2466691 C7.32206413,11.9541299 7.32149047,11.4792565 7.61402965,11.1860097 Z M6.78855561,12.6694822 C7.08138568,12.3765259 7.5562594,12.3764235 7.84921575,12.6692536 C8.1421721,12.9620837 8.14227447,13.4369574 7.84944439,13.7299138 L5.53044439,16.0499138 C5.23761432,16.3428701 4.7627406,16.3429725 4.46978425,16.0501424 C4.1768279,15.7573123 4.17672553,15.2824386 4.46955561,14.9894822 L6.78855561,12.6694822 Z M11.7895987,5.37491943 C13.0858008,4.29755658 16.1270555,4.06309144 18.9803608,4.34739442 C19.3357654,4.38280689 19.6168913,4.66393283 19.6523036,5.01933744 C19.9365876,7.87246211 19.7021297,10.9139225 18.5968355,12.242853 C17.9192775,12.9703601 17.1604728,13.6177121 16.3353125,14.1722053 C15.9915118,14.4032333 15.525521,14.3118129 15.294493,13.9680122 C15.063465,13.6242115 15.1548854,13.1582207 15.4986861,12.9271927 C16.2285987,12.4367043 16.8998151,11.8640757 17.47104,11.252514 C18.1054014,10.4887152 18.346459,8.22302651 18.2254545,6.0223841 L18.21,5.789 L17.9774072,5.7742038 C15.8729254,5.65815135 13.711668,5.87103318 12.8845441,6.42314351 L12.7801545,6.50053491 C12.1366233,7.09988322 11.5639948,7.77109954 11.0735062,8.50101217 C10.8424781,8.84481283 10.3764873,8.93623305 10.0326866,8.70520495 C9.68888596,8.47417685 9.59746574,8.00818608 9.82849384,7.66438542 C10.3829871,6.83922544 11.0303387,6.08042108 11.7895987,5.37491943 Z M15.8006699,7.13836871 C16.0935631,6.8454755 16.5684369,6.8454755 16.8613301,7.13836871 C17.1542233,7.43126193 17.1542233,7.90613567 16.8613301,8.19902889 L15.6243301,9.43602889 C15.3314369,9.7289221 14.8565631,9.7289221 14.5636699,9.43602889 C14.2707767,9.14313567 14.2707767,8.66826193 14.5636699,8.37536871 L15.8006699,7.13836871 Z" id="Vector-52" fill="#D91438" fill-rule="nonzero"></path>
    </g>
</svg>