<?xml version="1.0" encoding="UTF-8"?>
<svg width="24px" height="24px" viewBox="0 0 24 24" version="1.1" xmlns="http://www.w3.org/2000/svg" xmlns:xlink="http://www.w3.org/1999/xlink">
    <title>shopping_bag</title>
    <g id="shopping_bag" stroke="none" stroke-width="1" fill="none" fill-rule="evenodd">
        <path d="M6.91731812,6.25 L17.1082654,6.25023935 C17.8673085,6.26942044 18.5836964,6.60534322 19.0838554,7.17661699 C19.584016,7.74789171 19.8223124,8.50239227 19.742631,9.24043854 L18.9797594,18.2253366 C18.8893799,19.6247549 17.7423592,20.7218269 16.3253185,20.75 L7.66771588,20.75 C6.26512619,20.7225443 5.11730443,19.6252822 5.02800594,18.2404381 L4.26400586,9.24043853 L4.2513369,9.05157112 C4.2298162,8.36672337 4.46809033,7.69595698 4.92278124,7.176617 C5.42294121,6.60534302 6.13932878,6.26942044 6.91731812,6.25 Z M6.93626464,7.74976065 C6.59627382,7.75835225 6.27538909,7.90881888 6.05135718,8.16470422 C5.82732527,8.42058954 5.72058775,8.7585455 5.75700583,9.0966895 L5.7586303,9.11356151 L6.52375843,18.1286554 C6.56392941,18.7505624 7.07383602,19.2380085 7.68231833,19.25 L16.3103309,19.2501498 C16.9331769,19.2377007 17.4427278,18.750339 17.4840064,18.1135611 L18.2496312,9.0966883 C18.2860496,8.75854599 18.1793119,8.42059021 17.955279,8.16470376 C17.7312479,7.90881887 17.4103632,7.75835225 17.0893189,7.75 L6.93626464,7.74976065 Z" id="Vector-5" fill="#D91438" fill-rule="nonzero"></path>
        <path d="M14.5033092,10.25 C14.9175228,10.25 15.2533092,10.5857864 15.2533092,11 L15.2533092,11.5 C15.2533092,13.2949254 13.7982346,14.75 12.0033092,14.75 C10.2083838,14.75 8.7533092,13.2949254 8.7533092,11.5 L8.7533092,11 C8.7533092,10.5857864 9.08909564,10.25 9.5033092,10.25 C9.91752276,10.25 10.2533092,10.5857864 10.2533092,11 L10.2533092,11.5 C10.2533092,12.4664983 11.0368109,13.25 12.0033092,13.25 C12.9698075,13.25 13.7533092,12.4664983 13.7533092,11.5 L13.7533092,11 C13.7533092,10.5857864 14.0890956,10.25 14.5033092,10.25 Z M8.22830926,4.25 L15.8543202,4.25386174 C16.5532642,4.32506506 17.1723213,4.73588416 17.5094787,5.35225931 C17.8466356,5.9686343 17.858648,6.71150689 17.5415957,7.33846032 C17.3546692,7.70809713 16.9034856,7.85621312 16.5338488,7.66928664 C16.1642119,7.48236017 16.016096,7.03117649 16.2030224,6.66153968 C16.2971125,6.47548181 16.2935476,6.25502301 16.1934912,6.07210448 C16.0934346,5.88918572 15.90972,5.76726892 15.778309,5.75 L8.30432035,5.74613827 C8.09689807,5.76726893 7.91318352,5.8891857 7.81312708,6.07210423 C7.71307058,6.25502293 7.70950576,6.47548165 7.80359587,6.66153955 C7.99052241,7.03117633 7.8424065,7.48236004 7.47276973,7.66928658 C7.10313296,7.85621312 6.65194925,7.70809722 6.4650227,7.33846045 C6.14797024,6.71150696 6.1599825,5.96863427 6.49713959,5.35225916 C6.83429672,4.73588419 7.45335388,4.32506505 8.22830926,4.25 Z" id="Vector-6" fill="#D91438" fill-rule="nonzero"></path>
    </g>
</svg>