<?xml version="1.0" encoding="UTF-8"?>
<svg width="24px" height="24px" viewBox="0 0 24 24" version="1.1" xmlns="http://www.w3.org/2000/svg" xmlns:xlink="http://www.w3.org/1999/xlink">
    <title>Weather</title>
    <g id="Weather" stroke="none" stroke-width="1" fill="none" fill-rule="evenodd" stroke-linecap="round" stroke-linejoin="round">
        <g id="Vector" transform="translate(5, 5)" stroke="#FFFFFF" stroke-width="1.5">
            <path d="M10.5229873,6.44496821 C12.0886594,6.40921178 13.3869493,7.6493025 13.4229868,9.21496827 C13.4233275,9.48384957 13.3828668,9.75122589 13.3029873,10.0079681 C14.2704126,10.1732421 14.9832282,11.0036693 14.9999873,11.9849681 C14.9743164,13.12311 14.0311409,14.0251016 12.8929869,13.9999685 L5.51898734,13.9999685 C4.38083368,14.0251016 3.43765854,13.12311 3.4119873,11.9849681 C3.42671493,11.0481145 4.07952412,10.2425285 4.99298727,10.0339683 C4.99298727,10.0133016 4.99298727,9.99230164 4.99298727,9.97096825 C5.01865852,8.83282654 5.96183376,7.9308342 7.09998742,7.95596823 C7.36399393,7.95557372 7.62588887,8.00300614 7.87298721,8.09596818 C8.36036806,7.07737042 9.39385045,6.43349133 10.5229873,6.44496821 Z" id="Vector-3"></path>
            <path d="M9.733,14 L5.519,14 M8.679,14 L12.893,14 M2.675,0.544 L3.42,1.853 M7.1,0 L6.74,1.445 M0,4.155 L1.414,4.561 M7.8900001,4.19999995 C6.97331766,3.36137131 5.62237864,3.20459469 4.53800004,3.81099997 C3.45853686,4.47831522 2.92123327,5.75692091 3.19999992,6.9949999" id="Vector-4"></path>
        </g>
    </g>
</svg>